<svg width="145" height="63" viewBox="0 0 145 63" fill="none" xmlns="http://www.w3.org/2000/svg">
    <path d="M116.475 27.6688C120.323 21.201 114.513 17.9456 112.454 17.7408C110.503 17.5467 108.142 16.5011 104.822 13.2241C100.5 8.97691 92.4256 10.5292 90.3128 15.919C88.6204 20.2632 86.5507 21.9879 84.8044 22.8719C82.9503 23.7989 78.5199 29.2318 84.535 33.1772" fill="#2DC275" />
    <path d="M116.475 27.6688C120.323 21.201 114.513 17.9456 112.454 17.7408C110.503 17.5467 108.142 16.5011 104.822 13.2241C100.5 8.97691 92.4256 10.5292 90.3128 15.919C88.6204 20.2632 86.5507 21.9879 84.8044 22.8719C82.9503 23.7989 78.5199 29.2318 84.535 33.1772" stroke="#2A2D34" stroke-width="2" stroke-miterlimit="10" stroke-linecap="round" stroke-linejoin="round" />
    <path d="M105.857 59.5334C113.198 58.1751 118.685 42.7279 116.044 32.5951C113.403 22.4622 103.453 22.0203 99.0551 22.8395C94.657 23.6588 85.5159 27.6257 86.6801 38.0388C87.8443 48.4519 98.5161 60.8916 105.857 59.5334Z" fill="white" />
    <path d="M95.77 43.0672C97.0343 42.8328 97.9422 42.0117 97.7979 41.2332C97.6536 40.4547 96.5116 40.0136 95.2473 40.248C93.9829 40.4824 93.075 41.3036 93.2193 42.0821C93.3637 42.8606 94.5056 43.3017 95.77 43.0672Z" fill="#2A2D34" />
    <path d="M105.857 59.5334C113.198 58.1751 118.685 42.7279 116.044 32.5951C113.403 22.4622 103.453 22.0203 99.0551 22.8395C94.657 23.6588 85.5159 27.6257 86.6801 38.0388C87.8443 48.4519 98.5161 60.8916 105.857 59.5334Z" stroke="#2A2D34" stroke-width="2" stroke-miterlimit="10" stroke-linecap="round" stroke-linejoin="round" />
    <path d="M109.362 40.5459C110.627 40.3115 111.534 39.4903 111.39 38.7118C111.246 37.9333 110.104 37.4923 108.839 37.7267C107.575 37.9611 106.667 38.7823 106.812 39.5608C106.956 40.3393 108.098 40.7803 109.362 40.5459Z" fill="#2A2D34" />
    <path d="M93.8054 45.2611C93.8054 45.2611 96.1554 46.4469 98.3868 44.4095L93.8054 45.2611Z" fill="white" />
    <path d="M93.8054 45.2611C93.8054 45.2611 96.1554 46.4469 98.3868 44.4095" stroke="#2A2D34" stroke-width="2" stroke-miterlimit="10" stroke-linecap="round" stroke-linejoin="round" />
    <path d="M107.409 42.7387C107.409 42.7387 109.759 43.9245 111.991 41.8871L107.409 42.7387Z" fill="white" />
    <path d="M107.409 42.7387C107.409 42.7387 109.759 43.9245 111.991 41.8871" stroke="#2A2D34" stroke-width="2" stroke-miterlimit="10" stroke-linecap="round" stroke-linejoin="round" />
    <path d="M116.712 38.5454C116.712 38.5454 116.734 51.923 110.654 51.8367C107.183 51.7936 107.517 47.4925 103.755 48.1932C99.9929 48.8939 101.847 52.7745 98.6239 54.0681C92.9754 56.321 88.2 43.8275 88.2 43.8275C80.083 51.6103 89.4828 65.128 97.7616 66.5617C101.34 67.1869 104.165 69.7309 106.083 72.1132C107.269 73.5792 109.576 73.1588 110.147 71.3586C111.096 68.4373 112.81 65.0525 115.936 63.1877C123.148 58.8866 127.082 42.9004 116.712 38.5454Z" fill="#2A2D34" stroke="#2A2D34" stroke-width="2" stroke-miterlimit="10" stroke-linecap="round" stroke-linejoin="round" />
    <path d="M124.387 34.4492C123.967 33.382 122.76 32.8538 121.692 33.2742C120.625 33.6946 120.097 34.9019 120.517 35.9691C120.668 36.3464 120.657 36.562 120.647 36.6051C120.614 36.6374 120.356 36.7776 119.924 36.7776C119.418 36.7776 118.922 36.5943 118.696 36.314C118.383 35.9475 118.081 34.2659 117.887 33.1556C117.305 29.8678 116.497 25.3512 112.691 22.7641C107.485 19.2176 99.0443 20.7375 98.6886 20.8022C98.3329 20.8668 89.914 22.4838 86.3244 27.658C83.6726 31.4309 84.5457 35.926 85.171 39.2138C85.3865 40.3241 85.7099 41.9949 85.5482 42.4584C85.4297 42.7926 85.0308 43.1483 84.5673 43.3316C84.1577 43.4933 83.8666 43.4502 83.8343 43.4394C83.8019 43.407 83.7265 43.213 83.7265 42.8034C83.7373 41.6607 82.8102 40.7229 81.6568 40.7121C80.5142 40.7014 79.5763 41.6284 79.5656 42.7818C79.544 45.8325 81.4196 47.2446 83.1659 47.5464C83.7588 47.6542 84.384 47.6326 84.9877 47.5249C86.9712 47.1583 88.8145 45.7247 89.472 43.849C90.0002 42.3291 89.6553 40.5289 89.2564 38.4484C88.7067 35.6026 88.0922 32.3795 89.72 30.0403C91.8867 26.9142 97.4705 25.2757 99.4324 24.9092C101.405 24.5535 107.205 24.0792 110.341 26.2243C112.702 27.8305 113.284 31.0644 113.791 33.9102C114.168 36.0014 114.481 37.8124 115.526 39.0305C116.809 40.5504 119.051 41.2188 121.035 40.8523C121.638 40.7445 122.221 40.5289 122.738 40.2163C124.258 39.2784 125.498 37.295 124.387 34.4492Z" fill="#FFD530" stroke="#2A2D34" stroke-width="2" stroke-miterlimit="10" stroke-linecap="round" stroke-linejoin="round" />
    <path d="M98.031 20.8776C99.6563 20.8776 100.974 19.5601 100.974 17.9348C100.974 16.3095 99.6563 14.9919 98.031 14.9919C96.4057 14.9919 95.0882 16.3095 95.0882 17.9348C95.0882 19.5601 96.4057 20.8776 98.031 20.8776Z" fill="white" stroke="#2A2D34" stroke-width="2" stroke-miterlimit="10" stroke-linecap="round" stroke-linejoin="round" />
    <path d="M80.1261 20.3386C81.8526 20.3386 83.2522 18.939 83.2522 17.2125C83.2522 15.4861 81.8526 14.0865 80.1261 14.0865C78.3996 14.0865 77 15.4861 77 17.2125C77 18.939 78.3996 20.3386 80.1261 20.3386Z" fill="#2DC275" stroke="#2A2D34" stroke-width="2" stroke-miterlimit="10" stroke-linecap="round" stroke-linejoin="round" />
    <path d="M114.707 13.9248C116.434 13.9248 117.833 12.5252 117.833 10.7987C117.833 9.07221 116.434 7.67261 114.707 7.67261C112.981 7.67261 111.581 9.07221 111.581 10.7987C111.581 12.5252 112.981 13.9248 114.707 13.9248Z" fill="#2DC275" stroke="#2A2D34" stroke-width="2" stroke-miterlimit="10" stroke-linecap="round" stroke-linejoin="round" />
    <path d="M95.735 10.7879C98.4378 10.7879 100.629 8.5968 100.629 5.89395C100.629 3.1911 98.4378 1 95.735 1C93.0321 1 90.841 3.1911 90.841 5.89395C90.841 8.5968 93.0321 10.7879 95.735 10.7879Z" fill="#2DC275" stroke="#2A2D34" stroke-width="2" stroke-miterlimit="10" stroke-linecap="round" stroke-linejoin="round" />
    <path d="M93.4928 26.9789L100.748 32.0022L106.45 24.8122C106.45 24.8122 98.6994 23.3785 93.4928 26.9789Z" fill="#2A2D34" stroke="#2A2D34" stroke-width="2" stroke-miterlimit="10" stroke-linecap="round" stroke-linejoin="round" />
    <path d="M88.8253 35.9583C88.8253 35.9583 91.4231 32.4226 94.6678 36.3572C96.7698 38.9119 98.7533 37.5537 98.7533 37.5537" stroke="#2A2D34" stroke-width="2" stroke-miterlimit="10" stroke-linecap="round" stroke-linejoin="round" />
    <path d="M113.306 31.4201C113.306 31.4201 109.619 29.0486 107.991 33.8886C106.946 37.0255 104.607 36.465 104.607 36.465" stroke="#2A2D34" stroke-width="2" stroke-miterlimit="10" stroke-linecap="round" stroke-linejoin="round" />
    <path d="M50.6256 56.7179C50.5021 56.7179 50.3684 56.6974 50.2552 56.6459C49.998 56.5431 49.7923 56.3476 49.6894 56.1007L42.1078 38.7874C41.8815 38.2627 42.1181 37.6558 42.6324 37.4295L43.6097 36.9974C43.7434 36.9357 43.8772 36.9151 44.0212 36.9151C44.1446 36.9151 44.2784 36.9357 44.4018 36.9871C44.5561 37.0489 44.6899 37.1414 44.7927 37.2649C44.7619 37.1003 44.7722 36.9357 44.8339 36.7608C44.9367 36.5036 45.1116 36.3493 45.3585 36.2362L46.4181 35.7732C46.5518 35.7115 46.6959 35.6909 46.8296 35.6909C47.2308 35.6909 47.6011 35.9173 47.776 36.3082C47.6834 36.051 47.6114 35.7938 47.7143 35.5469C47.8172 35.3 47.9406 35.1149 48.1978 35.012L49.2574 34.5491C49.3911 34.4873 49.5351 34.4668 49.6689 34.4668C50.0701 34.4668 50.4404 34.6931 50.6153 35.084C50.5021 34.8371 50.4301 34.5799 50.533 34.3228C50.6358 34.0656 50.7593 33.8907 51.0165 33.7878L52.0761 33.3249C52.2098 33.2632 52.3538 33.2426 52.4875 33.2426C52.8887 33.2426 53.2591 33.4689 53.434 33.8598C53.2076 33.3352 53.3105 32.79 53.8352 32.5636L54.8124 32.1316C54.9462 32.0699 55.0799 32.0493 55.2239 32.0493C55.3474 32.0493 55.4811 32.0699 55.5943 32.1213C55.8514 32.2242 56.0572 32.4196 56.1601 32.6665L63.7314 49.9798C63.9578 50.5045 63.7211 51.1114 63.2068 51.3378L62.2295 51.7698C62.0958 51.8315 61.962 51.8521 61.818 51.8521C61.6946 51.8521 61.5608 51.8315 61.4477 51.7801C61.1905 51.6772 60.9848 51.4818 60.8819 51.2349C60.995 51.4818 61.0671 51.739 60.9642 51.9961C60.8613 52.2533 60.7379 52.4282 60.4807 52.5311L59.4108 52.9734C59.2771 53.0351 59.1331 53.0557 58.9993 53.0557C58.5981 53.0557 58.2278 52.8294 58.0529 52.4385C58.1661 52.6854 58.2381 52.9426 58.1352 53.1997C58.0323 53.4569 57.9089 53.6318 57.6517 53.7347L56.5921 54.1976C56.4584 54.2593 56.3144 54.2799 56.1806 54.2799C55.7794 54.2799 55.4091 54.0536 55.2342 53.6627C55.4605 54.1873 55.3577 54.7325 54.833 54.9588L53.7734 55.4218C53.6397 55.4835 53.4957 55.5041 53.362 55.5041C52.9608 55.5041 52.5904 55.2777 52.4155 54.8868C52.5287 55.1337 52.6007 55.3909 52.4978 55.6481C52.395 55.9053 52.2715 56.0801 52.0143 56.183L51.037 56.6151C50.9136 56.6871 50.7696 56.7179 50.6256 56.7179Z" fill="white" />
    <path d="M55.2136 33.0574L62.785 50.3708L61.8077 50.8028C61.6534 50.4428 61.3037 50.2268 60.9333 50.2268C60.8099 50.2268 60.6761 50.2576 60.5527 50.3091C60.0692 50.5251 59.8429 51.0806 60.0589 51.5641L58.9993 52.027C58.845 51.667 58.4953 51.4509 58.1249 51.4509C58.0015 51.4509 57.8677 51.4818 57.7443 51.5332C57.2608 51.7493 57.0448 52.3048 57.2505 52.7883L56.1909 53.2512C56.0366 52.8911 55.6869 52.6751 55.3165 52.6751C55.1931 52.6751 55.0593 52.706 54.9359 52.7574C54.4524 52.9734 54.2364 53.5289 54.4421 54.0124L53.3825 54.4754C53.2282 54.1153 52.8785 53.8993 52.5081 53.8993C52.3847 53.8993 52.2509 53.9301 52.1275 53.9816C51.644 54.1976 51.428 54.7531 51.6337 55.2366L50.6564 55.6687L43.0542 38.3759L44.0315 37.9439C44.1858 38.3039 44.5355 38.5199 44.9059 38.5199C45.0293 38.5199 45.1631 38.4891 45.2865 38.4376C45.77 38.2216 45.9963 37.6661 45.7803 37.1826L46.8399 36.7197C46.9942 37.0797 47.344 37.2958 47.7143 37.2958C47.8377 37.2958 47.9715 37.2649 48.0949 37.2135C48.5784 36.9974 48.7944 36.4419 48.5887 35.9584L49.6483 35.4955C49.8026 35.8556 50.1524 36.0716 50.5227 36.0716C50.6461 36.0716 50.7799 36.0407 50.9033 35.9893C51.3868 35.7733 51.6028 35.2177 51.3971 34.7342L52.4567 34.2713C52.611 34.6314 52.9608 34.8474 53.3311 34.8474C53.4545 34.8474 53.5883 34.8165 53.7117 34.7651C54.1952 34.5491 54.4112 33.9936 54.2055 33.5101L55.2136 33.0574ZM55.2136 31C54.9359 31 54.6581 31.0514 54.3907 31.1749L53.4134 31.6069C53.1048 31.7407 52.8373 31.9464 52.6316 32.2036C52.5801 32.2036 52.5287 32.1933 52.4875 32.1933C52.2098 32.1933 51.932 32.2447 51.6646 32.3682L50.605 32.8311C50.2964 32.9649 50.0289 33.1706 49.8232 33.4278C49.7717 33.4278 49.7306 33.4175 49.6791 33.4175C49.4014 33.4175 49.1133 33.4792 48.8562 33.5924L47.7966 34.0553C47.4777 34.189 47.2205 34.4051 47.0148 34.652C46.9633 34.652 46.9222 34.6417 46.8707 34.6417C46.593 34.6417 46.3049 34.7034 46.0478 34.8165L44.9882 35.2795C44.6796 35.4132 44.4121 35.6189 44.2064 35.8761C44.1549 35.8761 44.1035 35.8658 44.0623 35.8658C43.7846 35.8658 43.5068 35.9173 43.2394 36.0407L42.2312 36.4934C41.1922 36.946 40.719 38.1599 41.1716 39.1989L48.743 56.5122C49.0825 57.2838 49.8334 57.7467 50.6256 57.7467C50.9033 57.7467 51.1811 57.6952 51.4485 57.5718L52.4258 57.1397C52.7344 57.006 53.0019 56.8003 53.2076 56.5431C53.2591 56.5431 53.3105 56.5534 53.3517 56.5534C53.6294 56.5534 53.9072 56.5019 54.1746 56.3785L55.2342 55.9156C55.5428 55.7818 55.8103 55.5761 56.016 55.3189C56.0675 55.3189 56.1086 55.3292 56.1601 55.3292C56.4378 55.3292 56.7259 55.2675 56.983 55.1543L58.0426 54.6914C58.3615 54.5577 58.6187 54.3416 58.8244 54.0947C58.8759 54.0947 58.917 54.105 58.9685 54.105C59.2462 54.105 59.5343 54.0433 59.7914 53.9301L60.851 53.4672C61.1596 53.3335 61.4271 53.1277 61.6328 52.8706C61.6843 52.8706 61.7357 52.8808 61.7769 52.8808C62.0546 52.8808 62.3324 52.8294 62.5998 52.706L63.6183 52.2533C64.6573 51.8007 65.1305 50.5868 64.6779 49.5478L57.1065 32.2345C56.767 31.4526 56.0058 31 55.2136 31Z" fill="#2A2D34" />
    <path d="M48.5 52.363L62 46.363" stroke="#2A2D34" stroke-width="2" stroke-linecap="round" stroke-dasharray="2 3" />
    <path d="M54.444 36.3631L46 40.0583L49.6952 48.5023L58.1392 44.8071L54.444 36.3631Z" fill="#FFD530" />
    <path d="M11.7386 35.319C14.2453 35.319 16.2773 33.2814 16.2773 30.7679C16.2773 28.2543 14.2453 26.2167 11.7386 26.2167C9.2319 26.2167 7.19983 28.2543 7.19983 30.7679C7.19983 33.2814 9.2319 35.319 11.7386 35.319Z" fill="#FFD530" stroke="#2A2D34" stroke-width="2" stroke-miterlimit="10" stroke-linecap="round" stroke-linejoin="round" />
    <path d="M11.7386 20V22.2638" stroke="#2A2D34" stroke-width="2" stroke-miterlimit="10" stroke-linecap="round" stroke-linejoin="round" />
    <path d="M4.1467 23.1553L5.7493 24.7505" stroke="#2A2D34" stroke-width="2" stroke-miterlimit="10" stroke-linecap="round" stroke-linejoin="round" />
    <path d="M1 30.7679H3.25768" stroke="#2A2D34" stroke-width="2" stroke-miterlimit="10" stroke-linecap="round" stroke-linejoin="round" />
    <path d="M4.1467 38.3804L5.7493 36.7735" stroke="#2A2D34" stroke-width="2" stroke-miterlimit="10" stroke-linecap="round" stroke-linejoin="round" />
    <path d="M11.7386 41.5357V39.2719" stroke="#2A2D34" stroke-width="2" stroke-miterlimit="10" stroke-linecap="round" stroke-linejoin="round" />
    <path d="M19.3305 38.3804L17.7396 36.7735" stroke="#2A2D34" stroke-width="2" stroke-miterlimit="10" stroke-linecap="round" stroke-linejoin="round" />
    <path d="M22.4772 30.7679H20.2195" stroke="#2A2D34" stroke-width="2" stroke-miterlimit="10" stroke-linecap="round" stroke-linejoin="round" />
    <path d="M19.3305 23.1553L17.7396 24.7505" stroke="#2A2D34" stroke-width="2" stroke-miterlimit="10" stroke-linecap="round" stroke-linejoin="round" />
    <path d="M11.7386 35.319C14.2453 35.319 16.2773 33.2814 16.2773 30.7679C16.2773 28.2543 14.2453 26.2167 11.7386 26.2167C9.2319 26.2167 7.19983 28.2543 7.19983 30.7679C7.19983 33.2814 9.2319 35.319 11.7386 35.319Z" fill="#FFD530" stroke="#2A2D34" stroke-width="2" stroke-miterlimit="10" stroke-linecap="round" stroke-linejoin="round" />
    <path d="M132.329 65.4429C138.586 65.4429 143.659 60.3706 143.659 54.1135C143.659 47.8565 138.586 42.7841 132.329 42.7841C126.072 42.7841 121 47.8565 121 54.1135C121 60.3706 126.072 65.4429 132.329 65.4429Z" fill="#2DC275" stroke="#2A2D34" stroke-width="2" stroke-miterlimit="10" stroke-linecap="round" stroke-linejoin="round" />
    <path d="M133.946 42.8919L137.838 15.8889" stroke="#2A2D34" stroke-width="2" stroke-miterlimit="10" stroke-linecap="round" stroke-linejoin="round" />
    <path d="M132.125 19.0042L137.288 19.748" stroke="#2A2D34" stroke-width="2" stroke-miterlimit="10" stroke-linecap="round" stroke-linejoin="round" />
    <path d="M136.9 22.3998L142.063 23.1436" stroke="#2A2D34" stroke-width="2" stroke-miterlimit="10" stroke-linecap="round" stroke-linejoin="round" />
    <path d="M137.989 16.6866C139.007 16.6866 139.832 15.8613 139.832 14.8433C139.832 13.8253 139.007 13 137.989 13C136.971 13 136.145 13.8253 136.145 14.8433C136.145 15.8613 136.971 16.6866 137.989 16.6866Z" fill="white" stroke="#2A2D34" stroke-width="2" stroke-miterlimit="10" stroke-linecap="round" stroke-linejoin="round" />
    <path d="M128.772 60.5274L133.936 61.2712" stroke="#2A2D34" stroke-width="2" stroke-miterlimit="10" stroke-linecap="round" stroke-linejoin="round" />
</svg>