<svg width="133" height="80" viewBox="0 0 133 80" fill="none" xmlns="http://www.w3.org/2000/svg">
  <mask id="mask0" mask-type="alpha" maskUnits="userSpaceOnUse" x="27" y="0" width="106" height="80">
    <rect x="27" width="106" height="80" fill="#C4C4C4"/>
  </mask>
  <g mask="url(#mask0)">
    <path d="M104.328 15.4695C104.328 15.4695 101.024 4.98515 109.25 6.14703C117.472 7.3089 126.535 11.8187 117.191 20.8439C117.191 20.8439 113.909 16.6645 104.328 15.4695Z" fill="white" stroke="#2A2D34" stroke-width="1.9485" stroke-miterlimit="10" stroke-linecap="round" stroke-linejoin="round"/>
    <path d="M107.786 16.0808C107.786 16.0808 105.561 6.77478 110.363 6.32324" stroke="#2A2D34" stroke-width="1.9485" stroke-miterlimit="10" stroke-linecap="round" stroke-linejoin="round"/>
    <path d="M110.66 16.9123C110.66 16.9123 110.963 9.57761 113.986 7.20981" stroke="#2A2D34" stroke-width="1.9485" stroke-miterlimit="10" stroke-linecap="round" stroke-linejoin="round"/>
    <path d="M113.623 18.2008C113.623 18.2008 120.671 12.7879 117.472 8.71307" stroke="#2A2D34" stroke-width="1.9485" stroke-miterlimit="10" stroke-linecap="round" stroke-linejoin="round"/>
    <path d="M88.0229 26.009C88.0229 26.009 86.3544 22.9144 88.7112 20.5576C91.068 18.2008 108.744 15.5522 119.349 23.7954C122.328 26.1137 119.349 28.9991 119.349 28.9991L88.0229 26.009Z" fill="#2A2D34" stroke="#2A2D34" stroke-width="1.9485" stroke-miterlimit="10" stroke-linecap="round" stroke-linejoin="round"/>
    <path d="M81.6409 54.731C81.6409 54.731 72.7148 39.8469 67.5002 40.5902C61.3109 41.4713 55.8374 53.7012 83.9096 70.1216H121.034L117.874 60.3256L81.6409 54.731Z" fill="#FFD535" stroke="#2A2D34" stroke-width="1.9485" stroke-miterlimit="10" stroke-linecap="round" stroke-linejoin="round"/>
    <path d="M79.4438 74.0478L71.8999 72.0654L64.5101 70.1216C64.7579 54.3896 75.435 43.7234 75.435 43.7234L81.327 47.3247L97.4556 57.1758L103.667 100.87H60.5289C75.4406 100.87 79.4438 74.0478 79.4438 74.0478Z" fill="white"/>
    <path d="M70.8646 71.7956L64.5156 70.1271C64.7634 54.395 75.4405 43.7289 75.4405 43.7289L81.3324 47.3302C81.3324 47.3302 71.3712 60.0117 70.8646 71.7956Z" fill="#BC1E1E"/>
    <path d="M79.4438 74.0478L71.8999 72.0654L64.5101 70.1216C64.7579 54.3896 75.435 43.7234 75.435 43.7234L81.327 47.3247L97.4556 57.1758L103.667 100.87H60.5289C75.4406 100.87 79.4438 74.0478 79.4438 74.0478Z" stroke="#2A2D34" stroke-width="1.9485" stroke-miterlimit="10" stroke-linecap="round" stroke-linejoin="round"/>
    <path d="M120.208 67.7594C120.208 67.7594 123.705 73.3044 123.479 78.888C122.989 91.0354 113.76 97.4504 98.7331 96.2721C89.8841 95.5782 82.7422 88.9594 81.7455 79.1743C81.1783 73.6128 84.1629 67.7428 84.1629 67.7428L85.6386 63.9213" fill="#FFD535"/>
    <path d="M120.208 67.7594C120.208 67.7594 123.705 73.3044 123.479 78.888C122.989 91.0354 113.76 97.4504 98.7331 96.2721C89.8841 95.5782 82.7422 88.9594 81.7455 79.1743C81.1783 73.6128 84.1629 67.7428 84.1629 67.7428L85.6386 63.9213" stroke="#2A2D34" stroke-width="1.9485" stroke-miterlimit="10" stroke-linecap="round" stroke-linejoin="round"/>
    <path d="M97.461 89.5816C103.996 89.5816 109.294 82.8414 109.294 74.5268C109.294 66.2123 103.996 59.472 97.461 59.472C90.9255 59.472 85.6275 66.2123 85.6275 74.5268C85.6275 82.8414 90.9255 89.5816 97.461 89.5816Z" fill="white"/>
    <path d="M102.855 67.4864C92.585 67.4919 86.7757 65.2122 84.5896 64.1275V61.6C86.594 62.5636 93.2183 65.2618 102.855 65.2563C112.491 65.2618 119.11 62.5581 121.12 61.6V64.1275C118.934 65.2067 113.124 67.4919 102.855 67.4864Z" fill="#44B974" stroke="#2A2D34" stroke-width="1.9485" stroke-miterlimit="10" stroke-linecap="round" stroke-linejoin="round"/>
    <path d="M97.9759 69.7771L96.7425 71.0106C96.2139 71.5392 95.3548 71.5392 94.8262 71.0106L93.5928 69.7771C93.0641 69.2485 93.0641 68.3895 93.5928 67.8609L94.8262 66.6274C95.3548 66.0988 96.2139 66.0988 96.7425 66.6274L97.9759 67.8609C98.5046 68.3895 98.5046 69.2485 97.9759 69.7771Z" fill="#FFD634" stroke="#2A2D34" stroke-width="1.9485" stroke-miterlimit="10" stroke-linecap="round" stroke-linejoin="round"/>
    <path d="M126.161 38.696C121.971 26.1467 109.515 24.1864 102.687 23.8285C102.665 23.8285 102.643 23.8285 102.621 23.823C102.599 23.823 102.577 23.823 102.555 23.8174C95.7265 23.4871 83.1331 24.1864 77.7037 36.2511C70.738 51.7299 82.5825 60.287 82.5825 60.287C84.73 61.3498 87.4282 62.4731 90.6385 63.3432C94.4545 64.3784 97.863 64.7528 100.561 64.8519C103.254 65.0226 106.684 64.9896 110.583 64.3453C113.859 63.8002 116.662 62.9577 118.903 62.1152C118.892 62.1207 131.535 54.7971 126.161 38.696Z" fill="white"/>
    <path d="M102.257 30.9263C108.419 31.2346 105.379 37.3579 105.87 40.6508C106.365 43.9437 108.16 42.6992 116.541 41.7576C124.531 40.86 126.348 51.7023 126.508 52.5779C127.769 49.0096 128.127 44.4062 126.222 38.696C122.004 26.0695 109.41 24.1588 102.615 23.8229C95.8146 23.476 83.0946 24.1092 77.6321 36.2511C75.1597 41.7411 75.0606 46.361 75.9527 50.0339C76.2004 49.1803 79.0969 38.5693 86.9547 40.2653C95.2034 42.0439 96.8609 43.4646 97.6868 40.2378C98.5073 37.011 96.0955 30.6179 102.257 30.9263Z" fill="#FFD535"/>
    <path d="M118.958 62.1206C116.91 62.9797 110.17 65.3475 100.55 64.8574C90.9303 64.3673 84.4656 61.3497 82.5108 60.287C82.5108 60.287 70.6663 51.7354 77.632 36.2511C83.0945 24.1092 95.8145 23.476 102.615 23.8229C109.416 24.1588 122.009 26.0695 126.221 38.696C131.601 54.8025 118.958 62.1206 118.958 62.1206Z" stroke="#2A2D34" stroke-width="1.9485" stroke-miterlimit="10" stroke-linecap="round" stroke-linejoin="round"/>
    <path d="M86.6793 29.2248C86.6793 29.2248 87.8852 35.3646 85.6881 36.7797C83.7113 38.0517 79.2125 35.0121 78.5021 33.4263C78.1387 32.6113 77.6927 29.6818 80.523 27.259C83.3534 24.8361 87.0207 26.6918 87.0207 26.6918" fill="#FFD535"/>
    <path d="M86.6793 29.2248C86.6793 29.2248 87.8852 35.3646 85.6881 36.7797C83.7113 38.0517 79.2125 35.0121 78.5021 33.4263C78.1387 32.6113 77.6927 29.6818 80.523 27.259C83.3534 24.8361 87.0207 26.6918 87.0207 26.6918" stroke="#2A2D34" stroke-width="1.9485" stroke-miterlimit="10" stroke-linecap="round" stroke-linejoin="round"/>
    <path d="M117.846 28.2446C117.846 28.2446 121.679 26.7634 124.256 29.4561C126.827 32.1487 126.089 35.0176 125.649 35.7996C124.784 37.3083 120.005 39.8799 118.166 38.4151C116.123 36.7907 117.94 30.7996 117.94 30.7996" fill="#FFD535"/>
    <path d="M117.846 28.2446C117.846 28.2446 121.679 26.7634 124.256 29.4561C126.827 32.1487 126.089 35.0176 125.649 35.7996C124.784 37.3083 120.005 39.8799 118.166 38.4151C116.123 36.7907 117.94 30.7996 117.94 30.7996" stroke="#2A2D34" stroke-width="1.9485" stroke-miterlimit="10" stroke-linecap="round" stroke-linejoin="round"/>
    <path d="M108.601 66.201C108.601 66.201 110.913 83.1666 114.118 99.7081C116.756 113.309 142.653 104.686 143.479 103.689C144.31 102.693 135.682 99.3447 132.196 96.7897C128.71 94.2346 123.655 70.9476 121.64 64.9235C119.63 58.8994 108.601 66.201 108.601 66.201Z" fill="white" stroke="#2A2D34" stroke-width="1.9485" stroke-miterlimit="10" stroke-linecap="round" stroke-linejoin="round"/>
    <path d="M92.2244 19.0874C92.2244 19.0874 94.3389 15.6018 102.175 15.4366C110.005 15.2714 116.255 18.2284 119.349 23.8009C119.349 23.8009 106.299 18.4266 92.2244 19.0874Z" fill="white" stroke="#2A2D34" stroke-width="1.9485" stroke-miterlimit="10" stroke-linecap="round" stroke-linejoin="round"/>
    <path d="M99.0854 19.203C99.0854 19.203 102.417 15.5081 107.516 16.0202C112.389 16.5103 110.869 21.1468 110.869 21.1468" stroke="#2A2D34" stroke-width="1.9485" stroke-miterlimit="10" stroke-linecap="round" stroke-linejoin="round"/>
    <path d="M120.374 74.0368C121.602 74.1028 122.758 73.8495 123.738 73.1722C129.481 69.202 123.92 62.0105 119.113 59.472C114.305 56.9335 109.719 56.3278 107.643 61.0579C106.607 63.4202 108.138 66.5259 111.459 69.2736" fill="#FFD535"/>
    <path d="M120.374 74.0368C121.602 74.1028 122.758 73.8495 123.738 73.1722C129.481 69.202 123.92 62.0105 119.113 59.472C114.305 56.9335 109.719 56.3278 107.643 61.0579C106.607 63.4202 108.138 66.5259 111.459 69.2736" stroke="#2A2D34" stroke-width="1.9485" stroke-miterlimit="10" stroke-linecap="round" stroke-linejoin="round"/>
    <path d="M92.9843 44.4448C92.9843 44.4448 94.829 45.8545 96.8168 45.0836C98.8047 44.3071 99.6031 43.6409 101.613 43.74C103.623 43.8446 104.35 44.588 106.249 45.5571C108.149 46.5263 110.126 45.3093 110.126 45.3093" stroke="#2A2D34" stroke-width="1.9485" stroke-miterlimit="10" stroke-linecap="round" stroke-linejoin="round"/>
    <path d="M104.102 41.2125C104.113 41.2015 104.124 41.1905 104.129 41.1794C104.807 40.4801 104.509 39.3237 103.579 39.0374C102.99 38.8502 102.34 38.7731 101.866 38.7511C101.393 38.729 100.743 38.7401 100.137 38.8612C99.179 39.0539 98.7661 40.1717 99.3718 40.9372C99.3828 40.9482 99.3883 40.9592 99.3993 40.9702C100.572 42.4404 102.78 42.5506 104.102 41.2125Z" fill="#44B974" stroke="#2A2D34" stroke-width="1.9485" stroke-miterlimit="10"/>
    <path d="M92.6704 38.2885C92.3951 38.272 92.1858 38.5253 92.2354 38.7951C92.4226 39.8028 93.2816 40.5902 94.3499 40.6453C95.4181 40.7003 96.3543 40.001 96.6406 39.0153C96.7177 38.751 96.5305 38.4812 96.2606 38.4702L92.6704 38.2885Z" fill="#2A2D34"/>
    <path d="M111.062 39.2136C111.337 39.2301 111.519 39.4945 111.442 39.7588C111.156 40.7444 110.22 41.4438 109.151 41.3887C108.083 41.3336 107.219 40.5462 107.037 39.5385C106.987 39.2687 107.197 39.0209 107.472 39.0319L111.062 39.2136Z" fill="#2A2D34"/>
    <path d="M129.212 79.1413C126.954 83.7612 120.181 83.2987 115.346 82.2745C112.367 81.6467 110.126 80.7987 110.126 80.7987C112.78 66.4157 120.434 60.6339 120.434 60.6339C121.591 60.9037 122.829 61.5755 124.024 62.5392C128.336 66.0193 132.069 73.2934 129.212 79.1413Z" fill="white" stroke="#2A2D34" stroke-width="1.9485" stroke-miterlimit="10" stroke-linecap="round" stroke-linejoin="round"/>
    <path d="M124.024 62.5447C124.024 62.5447 115.423 71.9663 115.346 82.2745C112.367 81.6467 110.126 80.7987 110.126 80.7987C112.78 66.4157 120.434 60.6339 120.434 60.6339C121.591 60.9037 122.835 61.581 124.024 62.5447Z" fill="#BC1E1E" stroke="#2A2D34" stroke-width="1.9485" stroke-miterlimit="10" stroke-linecap="round" stroke-linejoin="round"/>
    <path d="M70.9896 71.2C70.9896 71.2 71.4444 64.5388 74.9896 57.6" stroke="#2A2D34" stroke-width="1.9485" stroke-miterlimit="10" stroke-linecap="round" stroke-linejoin="round"/>
    <path d="M79.4437 74.0478L81.6684 64.9455" stroke="#2A2D34" stroke-width="1.9485" stroke-miterlimit="10" stroke-linecap="round" stroke-linejoin="round"/>
    <path d="M80.4624 22.1875L78.2378 25.6456L71.9053 35.4692C70.7104 34.6928 69.3613 34.1862 67.9571 33.9769C62.5057 33.151 57.3351 36.9615 56.5146 42.4184C56.3714 43.36 56.3659 44.3127 56.4926 45.2543L44.9179 46.7961L40.8266 47.3467C40.5072 44.9239 40.5237 42.4735 40.8871 40.0561C43.0071 26.0311 56.2833 16.235 70.3139 18.3495C73.9262 18.9001 77.3898 20.2052 80.4624 22.1875Z" fill="white" stroke="#2A2D34" stroke-width="2.2214" stroke-miterlimit="10" stroke-linecap="round" stroke-linejoin="round"/>
    <path d="M71.9053 35.4637L66.4538 43.9161L56.4871 45.2487C56.3604 44.3071 56.3714 43.349 56.5091 42.4129C57.3295 36.9559 62.5002 33.1454 67.9516 33.9714C69.3613 34.1806 70.7049 34.6872 71.9053 35.4637Z" stroke="#2A2D34" stroke-width="2.2214" stroke-miterlimit="10" stroke-linecap="round" stroke-linejoin="round"/>
    <path d="M57.4122 39.5275L66.4539 43.9107L65.9859 33.8668" stroke="#2A2D34" stroke-width="2.2214" stroke-miterlimit="10" stroke-linecap="round" stroke-linejoin="round"/>
    <path d="M60.9254 35.5353L66.4539 43.9107" stroke="#2A2D34" stroke-width="2.2214" stroke-miterlimit="10" stroke-linecap="round" stroke-linejoin="round"/>
    <path d="M80.4624 22.1875L78.2378 25.6456C78.2378 25.6456 65.9252 19.5279 55.4463 26.0145C43.6129 33.3437 44.9179 46.7961 44.9179 46.7961L40.8266 47.3467C40.5072 44.9239 40.5237 42.4735 40.8871 40.0561C43.0071 26.0311 56.2833 16.235 70.3139 18.3495C73.9262 18.9001 77.3898 20.2052 80.4624 22.1875Z" fill="#BC1E1E" stroke="#2A2D34" stroke-width="1.9485" stroke-miterlimit="10" stroke-linecap="round" stroke-linejoin="round"/>
    <path d="M64.868 18.1127L65.1709 23.0575" stroke="#2A2D34" stroke-width="1.605" stroke-miterlimit="10" stroke-linecap="round" stroke-linejoin="round"/>
    <path d="M70.314 18.3495L69.5762 23.2227" stroke="#2A2D34" stroke-width="1.605" stroke-miterlimit="10" stroke-linecap="round" stroke-linejoin="round"/>
    <path d="M75.2533 19.6049L73.6564 24.0102" stroke="#2A2D34" stroke-width="1.605" stroke-miterlimit="10" stroke-linecap="round" stroke-linejoin="round"/>
    <path d="M53.4806 42.7873C53.4806 42.7873 53.9762 36.6751 59.4551 33.3437C64.9341 30.0123 70.0717 31.879 70.0717 31.879" stroke="#2A2D34" stroke-width="2.2214" stroke-miterlimit="10" stroke-linecap="round" stroke-linejoin="round"/>
    <path d="M40.6008 43.9107H44.94" stroke="#2A2D34" stroke-width="1.605" stroke-miterlimit="10" stroke-linecap="round" stroke-linejoin="round"/>
    <path d="M41.2451 38.1729L45.7329 39.1916" stroke="#2A2D34" stroke-width="1.605" stroke-miterlimit="10" stroke-linecap="round" stroke-linejoin="round"/>
    <path d="M42.7704 33.5695L47.0765 35.4527" stroke="#2A2D34" stroke-width="1.605" stroke-miterlimit="10" stroke-linecap="round" stroke-linejoin="round"/>
    <path d="M45.4796 28.8504L49.3287 31.6147" stroke="#2A2D34" stroke-width="1.605" stroke-miterlimit="10" stroke-linecap="round" stroke-linejoin="round"/>
    <path d="M49.5654 24.4011L52.6931 28.0134" stroke="#2A2D34" stroke-width="1.605" stroke-miterlimit="10" stroke-linecap="round" stroke-linejoin="round"/>
    <path d="M54.301 21.1468L56.5587 25.3758" stroke="#2A2D34" stroke-width="1.605" stroke-miterlimit="10" stroke-linecap="round" stroke-linejoin="round"/>
    <path d="M59.8241 18.9496L61.0741 23.6577" stroke="#2A2D34" stroke-width="1.605" stroke-miterlimit="10" stroke-linecap="round" stroke-linejoin="round"/>
  </g>
  <path d="M38.2175 68.4203C41.6655 64.67 41.3818 58.7959 37.5837 55.3C33.7856 51.8041 27.9115 52.0104 24.4634 55.7606C21.0153 59.5109 21.299 65.3851 25.0971 68.881C28.8952 72.3768 34.7694 72.1706 38.2175 68.4203Z" fill="#2DC275"/>
  <path fill-rule="evenodd" clip-rule="evenodd" d="M25.204 56.4423C22.1273 59.7887 22.3805 65.0303 25.7695 68.1497C29.1586 71.2691 34.4001 71.085 37.4769 67.7386C40.5536 64.3922 40.3004 59.1507 36.9114 56.0313C33.5223 52.9119 28.2807 53.0959 25.204 56.4423ZM24.4248 69.6123C20.2177 65.7399 19.9034 59.2331 23.7228 55.079C27.5422 50.9248 34.049 50.6964 38.2561 54.5687C42.4632 58.4411 42.7775 64.9478 38.9581 69.102C35.1387 73.2562 28.6319 73.4846 24.4248 69.6123Z" fill="#2A2D34"/>
  <path fill-rule="evenodd" clip-rule="evenodd" d="M10.6747 36.777C11.0989 36.4325 11.7268 36.5005 12.0772 36.9288L26.2656 54.2712C26.616 54.6996 26.5563 55.3261 26.1322 55.6707C25.708 56.0152 25.0801 55.9472 24.7296 55.5189L10.5413 38.1764C10.1908 37.7481 10.2506 37.1216 10.6747 36.777Z" fill="#2A2D34"/>
  <path fill-rule="evenodd" clip-rule="evenodd" d="M9.27835 43.3541C8.92555 42.9228 8.98568 42.2919 9.41265 41.9449L12.7182 39.2587C13.1451 38.9117 13.7773 38.9801 14.1301 39.4114C14.4829 39.8427 14.4227 40.4736 13.9957 40.8206L10.6902 43.5068C10.2633 43.8538 9.63114 43.7854 9.27835 43.3541Z" fill="#2A2D34"/>
  <path fill-rule="evenodd" clip-rule="evenodd" d="M13.9763 42.3575C13.6235 41.9262 13.6836 41.2953 14.1106 40.9483L17.4161 38.2621C17.8431 37.9151 18.4752 37.9835 18.828 38.4148C19.1808 38.8461 19.1207 39.477 18.6937 39.824L15.3882 42.5102C14.9612 42.8572 14.3291 42.7888 13.9763 42.3575Z" fill="#2A2D34"/>
  <path d="M11.9097 37.9171C12.4706 37.307 12.4245 36.3514 11.8067 35.7828C11.1889 35.2142 10.2334 35.2478 9.67246 35.8579C9.11153 36.468 9.15762 37.4235 9.77542 37.9922C10.3932 38.5608 11.3488 38.5272 11.9097 37.9171Z" fill="white"/>
  <path fill-rule="evenodd" clip-rule="evenodd" d="M10.4129 36.5394C10.2233 36.7456 10.2389 37.0687 10.4478 37.261C10.6567 37.4533 10.9798 37.442 11.1695 37.2357C11.3591 37.0294 11.3435 36.7063 11.1346 36.514C10.9257 36.3217 10.6026 36.3331 10.4129 36.5394ZM9.10313 38.7235C8.07623 37.7783 7.99955 36.1901 8.93184 35.1761C9.86414 34.1621 11.4524 34.1063 12.4793 35.0515C13.5062 35.9967 13.5828 37.5849 12.6506 38.5989C11.7183 39.6129 10.13 39.6687 9.10313 38.7235Z" fill="#2A2D34"/>
  <path fill-rule="evenodd" clip-rule="evenodd" d="M32.4663 68.4155C32.1135 67.9842 32.1736 67.3533 32.6006 67.0063L35.9061 64.3201C36.333 63.9731 36.9652 64.0415 37.318 64.4728C37.6708 64.9041 37.6106 65.535 37.1837 65.882L33.8782 68.5682C33.4512 68.9152 32.8191 68.8468 32.4663 68.4155Z" fill="#2A2D34"/>
  <path d="M30.3423 13.1109C27.8783 12.573 25.3667 14.1173 24.7242 16.5653C24.6091 17.0037 24.5863 17.4366 24.5988 17.8578C24.2263 17.6477 23.8364 17.4789 23.395 17.3826C20.931 16.8447 18.4195 18.389 17.7769 20.837C17.1344 23.285 18.607 25.6989 21.0711 26.2367L30.947 28.2636L33.6365 18.5106C34.279 16.0626 32.8018 13.6413 30.3423 13.1109Z" fill="#FFD530"/>
  <path fill-rule="evenodd" clip-rule="evenodd" d="M16.8069 20.6017C17.5876 17.6273 20.6326 15.755 23.6264 16.4085C23.661 16.416 23.6952 16.4239 23.7291 16.4321C23.7373 16.3981 23.7458 16.3639 23.7548 16.3296C24.5354 13.3556 27.5796 11.4834 30.5731 12.1362C33.5829 12.7859 35.391 15.7554 34.6062 18.7455L34.603 18.7575L31.9132 28.5114C31.7711 29.0266 31.2493 29.3475 30.7277 29.2404L20.8387 27.2108C17.8273 26.5535 16.0216 23.5935 16.8069 20.6017ZM23.1629 18.3558C21.2283 17.9335 19.2498 19.15 18.7453 21.0721C18.2459 22.9748 19.3829 24.8413 21.2966 25.2622L30.2351 27.0968L32.6693 18.2694C33.1658 16.3654 32.0203 14.4955 30.1133 14.0842L30.1108 14.0837C28.1762 13.6614 26.1977 14.8779 25.6932 16.8C25.611 17.1129 25.5892 17.4423 25.6001 17.8097C25.6109 18.1717 25.4232 18.5145 25.1098 18.7051C24.7965 18.8957 24.4069 18.9039 24.0925 18.7266C23.7804 18.5506 23.4833 18.4257 23.1629 18.3558Z" fill="#2A2D34"/>
</svg>
